<?xml version="1.0" standalone="no"?>
<!DOCTYPE svg PUBLIC "-//W3C//DTD SVG 1.1//EN" "http://www.w3.org/Graphics/SVG/1.1/DTD/svg11.dtd" >
<svg xmlns="http://www.w3.org/2000/svg" xmlns:xlink="http://www.w3.org/1999/xlink" version="1.1">
<metadata>
Created by FontForge 20161004 at Thu Feb 20 13:12:50 2014
 By PoopfEAST_420
JosephKnightcom
</metadata>
<defs>
<font id="Seraphimb1" horiz-adv-x="448" >
  <font-face 
    font-family="Seraphimb1"
    font-weight="500"
    font-stretch="normal"
    units-per-em="1024"
    panose-1="2 0 6 3 0 0 0 0 0 0"
    ascent="768"
    descent="-256"
    x-height="448"
    cap-height="576"
    bbox="-64 -192 832 704"
    underline-thickness="51"
    underline-position="-153"
    unicode-range="U+0020-3000"
  />
<missing-glyph horiz-adv-x="374" 
d="M34 0v682h272v-682h-272zM68 34h204v614h-204v-614z" />
    <glyph glyph-name=".notdef" horiz-adv-x="374" 
d="M34 0v682h272v-682h-272zM68 34h204v614h-204v-614z" />
    <glyph glyph-name=".null" horiz-adv-x="0" 
 />
    <glyph glyph-name="nonmarkingreturn" horiz-adv-x="341" 
 />
    <glyph glyph-name="space" unicode=" " horiz-adv-x="320" 
 />
    <glyph glyph-name="exclam" unicode="!" horiz-adv-x="192" 
d="M64 192v64v64v64v64v64v64v64h64h64v-64v-64v-64v-64v-64h-64v-64v-64h-64zM128 0h-64v64v64h64h64v-64v-64h-64z" />
    <glyph glyph-name="quotedbl" unicode="&#x22;" horiz-adv-x="256" 
d="M192 384v64v64v64v64h64v-64v-64v-64v-64h-64zM64 384v64v64v64v64h64v-64v-64v-64v-64h-64z" />
    <glyph glyph-name="numbersign" unicode="#" 
d="M192 0v64v64h-64v-64v-64h-64v64v64h-64v64h64h64v64v64h-64v64h64h64v64v64h64v-64v-64h64v64v64h64v-64v-64h64v-64h-64h-64v-64v-64h64h64v-64h-64h-64h-64v-64v-64h-64zM256 192v64v64h-64v-64v-64h64z" />
    <glyph glyph-name="dollar" unicode="$" 
d="M192 -128v64v64h-64v64h64v64v64v64h-64v64h-64v64v64v64h64v64h64v64h64v-64h64v-64h64h64v-64v-64h-64h-64v64v64h-64v-64v-64v-64h64h64v-64h64v-64v-64v-64h-64v-64h-64h-64v-64v-64h-64zM320 64v64v64h-64v-64v-64h64zM128 64h-64h-64v64v64h64h64v-64v-64zM192 384
v64v64h-64v-64v-64h64z" />
    <glyph glyph-name="percent" unicode="%" horiz-adv-x="640" 
d="M64 0v64v64h64v64h64v64h-64h-64v64h-64v64v64v64h64v64h64h64h64v-64h64v-64v-64h64v64h64v64h64v64h64v-64v-64h-64v-64h-64v-64h64h64v-64h64v-64v-64v-64h-64v-64h-64h-64h-64v64h-64v64v64h-64v-64h-64v-64h-64v-64h-64zM512 64v64v64v64h-64v-64v-64v-64h64z
M192 320v64v64v64h-64v-64v-64v-64h64z" />
    <glyph glyph-name="ampersand" unicode="&#x26;" horiz-adv-x="576" 
d="M512 64h64v-64h-64h-64h-64v64h-64v64h-64v64h-64v64h-64v-64v-64v-64h64h64h64v-64h-64h-64h-64h-64v64h-64v64v64v64h64v64h64v64h-64v64v64v64h64v64h64h64v-64h64v-64v-64v-64h64h64h64h64v-64h-64v-64h-64v-64h-64v64v64h-64v64h-64v64v64v64h-64v-64v-64v-64h64
v-64v-64h64v-64h64v-64h64v-64h64z" />
    <glyph glyph-name="quotesingle" unicode="'" horiz-adv-x="128" 
d="M0 384v64h64v-64h-64zM64 448v64h-64v64h64h64v-64v-64h-64z" />
    <glyph glyph-name="parenleft" unicode="(" horiz-adv-x="256" 
d="M192 -192v64h64v-64h-64zM192 -128h-64v64h-64v64v64h-64v64v64v64v64v64h64v64v64h64v64h64v-64v-64h-64v-64v-64v-64v-64v-64v-64v-64h64v-64v-64zM192 576v64h64v-64h-64z" />
    <glyph glyph-name="parenright" unicode=")" horiz-adv-x="256" 
d="M0 -192v64h64v-64h-64zM64 -128v64v64h64v64v64v64v64v64v64v64h-64v64v64h64v-64h64v-64v-64h64v-64v-64v-64v-64v-64h-64v-64v-64h-64v-64h-64zM64 576h-64v64h64v-64z" />
    <glyph glyph-name="asterisk" unicode="*" horiz-adv-x="320" 
d="M128 320v64v64h-64v-64h-64v64h64v64h64v64v64h64v-64v-64h64v-64h64v-64h-64v64h-64v-64v-64h-64zM256 512v64h64v-64h-64zM64 512h-64v64h64v-64z" />
    <glyph glyph-name="plus" unicode="+" horiz-adv-x="384" 
d="M192 128v64v64h-64h-64v64h64h64v64v64h64v-64v-64h64h64v-64h-64h-64v-64v-64h-64z" />
    <glyph glyph-name="comma" unicode="," horiz-adv-x="192" 
d="M64 -128v64h64v-64h-64zM128 -64v64h-64v64v64h64h64v-64v-64v-64h-64z" />
    <glyph glyph-name="hyphen" unicode="-" horiz-adv-x="256" 
d="M192 256h64v-64h-64h-64h-64h-64v64h64h64h64z" />
    <glyph glyph-name="period" unicode="." horiz-adv-x="192" 
d="M128 0h-64v64v64h64h64v-64v-64h-64z" />
    <glyph glyph-name="slash" unicode="/" horiz-adv-x="384" 
d="M64 -192h-64v64v64h64v64v64v64h64v64v64v64h64v64v64v64h64v64v64h64h64v-64v-64h-64v-64v-64v-64h-64v-64v-64v-64h-64v-64v-64v-64h-64v-64v-64h-64z" />
    <glyph glyph-name="zero" unicode="0" 
d="M192 128v64v64v64h64v-64v-64v-64h-64zM320 0h-64h-64h-64h-64v64h-64v64v64v64v64v64h64v64h64h64h64h64h64v-64h64v-64v-64v-64v-64v-64h-64v-64h-64zM256 64h64v64v64v64v64v64h-64h-64h-64v-64v-64v-64v-64v-64h64h64z" />
    <glyph glyph-name="one" unicode="1" horiz-adv-x="320" 
d="M256 0h-64h-64h-64h-64v64h64h64v64v64v64v64v64h-64h-64v64h64h64v64h64h64v-64v-64v-64v-64v-64v-64v-64h64v-64h-64z" />
    <glyph glyph-name="two" unicode="2" 
d="M384 64h64v-64h-64h-64h-64h-64h-64h-64h-64v64h64v64h64v-64h64h64h64h64zM128 128v64h64v-64h-64zM192 192v64h64v64v64h-64h-64v-64v-64h-64h-64v64v64h64v64h64h64h64h64v-64h64v-64v-64h-64v-64h-64h-64z" />
    <glyph glyph-name="three" unicode="3" 
d="M320 -128h-64h-64h-64h-64v64h-64v64v64h64h64v-64v-64h64h64h64v64v64v64h-64h-64h-64v64h64h64v64v64v64h-64h-64v-64v-64h-64h-64v64v64h64v64h64h64h64h64v-64h64v-64v-64h-64v-64h64v-64h64v-64v-64v-64h-64v-64h-64z" />
    <glyph glyph-name="four" unicode="4" 
d="M320 -128h-64v64v64v64h-64h-64h-64h-64v64v64h64v64h64v64h64v64h64v64h64h64v-64v-64v-64v-64v-64h64v-64h-64v-64v-64v-64h-64zM192 128h64v64v64h-64v-64h-64v-64h64z" />
    <glyph glyph-name="five" unicode="5" 
d="M0 64v64h64v-64h-64zM256 -64h64v-64h-64h-64h-64h-64v64h-64v64h64h64v-64h64h64zM320 -64v64v64v64h-64v64h-64h-64v-64h-64v64v64v64v64v64h64h64h64h64h64v-64h-64h-64h-64h-64v-64v-64h64h64h64v-64h64v-64h64v-64v-64h-64v-64h-64z" />
    <glyph glyph-name="six" unicode="6" 
d="M256 64h64v-64h-64h-64h-64v64h64h64zM320 64v64v64v64v64h64h64v-64v-64v-64v-64h-64h-64zM128 64h-64v64h-64v64v64v64v64h64v64h64v-64v-64h64v-64h-64v-64v-64v-64zM320 320h-64h-64v64h64h64v-64zM128 448v64h64v-64h-64zM256 576h64v-64h-64h-64v64h64z" />
    <glyph glyph-name="seven" unicode="7" 
d="M0 256v64v64v64h64h64h64h64h64h64h64v-64h-64v-64v-64h-64v-64v-64h-64v-64v-64h-64v-64v-64h-64h-64v64h64v64v64h64v64v64h64v64v64h64v64h-64h-64h-64v-64h-64v-64h-64z" />
    <glyph glyph-name="eight" unicode="8" 
d="M320 0h-64h-64h-64h-64v64h-64v64v64v64h64v64h64v64h-64v64h-64v64h64v64h64v-64v-64h64v-64h64h64v-64h64v-64h64v-64v-64v-64h-64v-64h-64zM256 64h64v64v64v64h-64v64h-64h-64v-64v-64v-64v-64h64h64zM320 384v64v64v64h64v-64h64v-64h-64v-64h-64zM320 576h-64h-64
h-64v64h64h64h64v-64z" />
    <glyph glyph-name="nine" unicode="9" 
d="M192 -128h-64h-64v64h64h64v64h64v64h-64h-64h-64v64h-64v64v64v64v64h64v64h64h64h64h64v-64h64v-64h64v-64v-64v-64h-64v-64v-64h-64v-64h-64v-64h-64zM320 64v64v64v64v64h-64v64h-64h-64v-64v-64v-64v-64h64h64v-64h64z" />
    <glyph glyph-name="colon" unicode=":" horiz-adv-x="192" 
d="M128 0h-64v64v64h64h64v-64v-64h-64zM128 320h-64v64v64h64h64v-64v-64h-64z" />
    <glyph glyph-name="semicolon" unicode=";" horiz-adv-x="192" 
d="M64 -128v64h64v-64h-64zM128 -64v64h-64v64v64h64h64v-64v-64v-64h-64zM128 320h-64v64v64h64h64v-64v-64h-64z" />
    <glyph glyph-name="less" unicode="&#x3c;" 
d="M384 0h-64v64h-64h-64v64h-64v64h-64v64h64v64h64v64h64h64v64h64h64v-64h-64v-64h-64h-64v-64h-64v-64h64v-64h64h64v-64h64v-64h-64z" />
    <glyph glyph-name="equal" unicode="=" 
d="M384 192h64v-64h-64h-64h-64h-64h-64h-64h-64v64h64h64h64h64h64h64zM384 320h64v-64h-64h-64h-64h-64h-64h-64h-64v64h64h64h64h64h64h64z" />
    <glyph glyph-name="greater" unicode="&#x3e;" 
d="M128 0h-64v64h64v64h64h64v64h64v64h-64v64h-64h-64v64h-64v64h64h64v-64h64h64v-64h64v-64h64v-64h-64v-64h-64v-64h-64h-64v-64h-64z" />
    <glyph glyph-name="question" unicode="?" horiz-adv-x="384" 
d="M128 192v64v64h64v64h64v64v64v64h-64h-64v-64v-64h-64h-64v64v64h64v64h64h64h64h64v-64h64v-64v-64v-64h-64v-64h-64v-64h-64v-64h-64zM128 0h-64v64v64h64h64v-64v-64h-64z" />
    <glyph glyph-name="at" unicode="@" horiz-adv-x="704" 
d="M448 -64h64v-64h-64h-64h-64h-64v64h64h64h64zM576 0h64v-64h-64h-64v64h64zM256 -64h-64h-64v64h-64v64h-64v64v64v64v64v64h64v64h64v64h64h64v-64h-64v-64h-64v-64v-64v-64v-64v-64h64v-64h64v-64zM576 64h-64h-64h-64h-64h-64v64h-64v64v64h64v64h64v64h64h64h64v-64
v-64v-64v-64h64v64h64v-64v-64h-64zM384 128v64v64h64v64h-64h-64v-64v-64v-64h64zM640 192v64v64v64v64h64v-64v-64v-64v-64h-64zM640 448h-64v64h64v-64zM576 512h-64h-64h-64h-64h-64v64h64h64h64h64h64v-64z" />
    <glyph glyph-name="A" unicode="A" horiz-adv-x="576" 
d="M512 0h-64h-64h-64v64h64v64h-64v64h-64h-64h-64v-64h-64v-64h64v-64h-64h-64h-64v64h64v64h64v64v64h64v64v64h64v64v64v64h64h64v-64v-64v-64h64v-64v-64h64v-64v-64h64v-64h64v-64h-64zM256 256v64v64h-64v-64v-64h64z" />
    <glyph glyph-name="B" unicode="B" horiz-adv-x="512" 
d="M384 0h-64h-64h-64h-64h-64h-64v64h64v64v64v64v64v64v64v64h-64v64h64h64h64h64h64h64v-64h64v-64v-64v-64h-64v-64h-64h-64h-64v-64v-64v-64h64h64h64v64v64v64h64h64v-64v-64v-64h-64v-64h-64zM256 320h64v64v64v64h-64h-64v-64v-64v-64h64z" />
    <glyph glyph-name="C" unicode="C" horiz-adv-x="512" 
d="M448 384v64h-64v64h64v64h64v-64v-64v-64h-64zM384 0h-64h-64h-64h-64v64h-64v64h-64v64v64v64v64v64h64v64h64v64h64h64h64h64v-64h-64h-64h-64v-64h-64v-64v-64v-64v-64v-64h64v-64h64h64h64v64h64v64h64v-64v-64h-64v-64h-64z" />
    <glyph glyph-name="D" unicode="D" horiz-adv-x="576" 
d="M384 0h-64h-64h-64h-64h-64h-64v64h64v64v64v64v64v64v64v64h-64v64h64h64h64h64h64h64h64v-64h64v-64h64v-64v-64v-64v-64v-64h-64v-64h-64v-64h-64zM320 64h64v64h64v64v64v64v64v64h-64v64h-64h-64h-64v-64v-64v-64v-64v-64v-64v-64h64h64z" />
    <glyph glyph-name="E" unicode="E" horiz-adv-x="512" 
d="M320 192v64h-64h-64v-64v-64v-64h64h64h64v64h64v64h64v-64v-64v-64h-64h-64h-64h-64h-64h-64h-64h-64v64h64v64v64v64v64v64v64v64h-64v64h64h64h64h64h64h64h64v-64v-64h-64v64h-64h-64h-64v-64v-64v-64h64h64v64h64v-64v-64v-64h-64z" />
    <glyph glyph-name="F" unicode="F" 
d="M320 192v64h-64h-64v-64v-64v-64h64v-64h-64h-64h-64h-64v64h64v64v64v64v64v64v64v64h-64v64h64h64h64h64h64h64h64v-64v-64h-64v64h-64h-64h-64v-64v-64v-64h64h64v64h64v-64v-64v-64h-64z" />
    <glyph glyph-name="G" unicode="G" horiz-adv-x="576" 
d="M448 384v64h-64v64h64v64h64v-64v-64v-64h-64zM448 0h-64h-64h-64h-64h-64v64h-64v64h-64v64v64v64v64v64h64v64h64v64h64h64h64h64v-64h-64h-64h-64v-64h-64v-64v-64v-64v-64v-64h64v-64h64h64h64v64v64h-64v64h64h64h64h64v-64h-64v-64v-64v-64h-64z" />
    <glyph glyph-name="H" unicode="H" horiz-adv-x="640" 
d="M576 0h-64h-64h-64v64h64v64v64v64h-64h-64h-64h-64v-64v-64v-64h64v-64h-64h-64h-64h-64v64h64v64v64v64v64v64v64v64h-64v64h64h64h64h64v-64h-64v-64v-64v-64h64h64h64h64v64v64v64h-64v64h64h64h64h64v-64h-64v-64v-64v-64v-64v-64v-64v-64h64v-64h-64z" />
    <glyph glyph-name="I" unicode="I" horiz-adv-x="256" 
d="M192 0h-64h-64h-64v64h64v64v64v64v64v64v64v64h-64v64h64h64h64h64v-64h-64v-64v-64v-64v-64v-64v-64v-64h64v-64h-64z" />
    <glyph glyph-name="J" unicode="J" horiz-adv-x="384" 
d="M192 0h-64h-64v64h-64v64v64h64v64h64h64v64v64v64v64h-64v64h64h64h64h64v-64h-64v-64v-64v-64v-64h64v-64h-64v-64v-64h-64v-64h-64zM128 64h64v64v64h-64h-64v-64v-64h64zM256 192v64h-64v-64h64z" />
    <glyph glyph-name="K" unicode="K" horiz-adv-x="576" 
d="M512 0h-64h-64v64v64h-64v64h-64v64h-64v-64v-64v-64h64h64v-64h-64h-64h-64h-64h-64v64h64v64v64v64v64v64v64v64h-64v64h64h64h64h64v-64h-64v-64v-64h64h64v-64v-64h64v-64h64v-64h64v-64h64v-64h-64zM320 384v64h64v-64h-64zM384 448v64h-64v64h64h64h64h64v-64h-64
h-64v-64h-64z" />
    <glyph glyph-name="L" unicode="L" horiz-adv-x="512" 
d="M448 0h-64h-64h-64h-64h-64h-64h-64v64h64v64v64v64v64v64v64v64h-64v64h64h64h64h64v-64h-64v-64v-64v-64v-64v-64v-64v-64h64h64h64v64h64v64h64v-64v-64v-64h-64z" />
    <glyph glyph-name="M" unicode="M" horiz-adv-x="704" 
d="M320 64v64h-64v64v64h-64v64v64h-64v-64v-64v-64v-64v-64h64h64v-64h-64h-64h-64h-64v64h64v64v64v64v64v64v64v64h-64v64h64h64h64v-64h64v-64v-64h64v-64v-64h64v64h64v-64v-64h-64v-64v-64h-64zM640 0h-64h-64h-64v64h64v64v64v64v64h-64v64v64h64v64v64h64h64h64v-64
h-64v-64v-64v-64v-64v-64v-64v-64h64v-64h-64z" />
    <glyph glyph-name="N" unicode="N" horiz-adv-x="640" 
d="M512 0h-64v64v64h-64v64h-64v64h-64v64h-64v-64v-64v-64v-64h64v-64h-64h-64h-64h-64v64h64v64v64v64v64v64v64v64h-64v64h64h64v-64h64v-64h64v-64h64v-64h64v-64h64v64v64v64v64h-64v64h64h64h64h64v-64h-64v-64v-64v-64v-64v-64v-64v-64v-64h-64z" />
    <glyph glyph-name="O" unicode="O" horiz-adv-x="576" 
d="M384 0h-64h-64h-64h-64v64h-64v64h-64v64v64v64v64v64h64v64h64v64h64h64h64h64h64v-64h64v-64h64v-64v-64v-64v-64v-64h-64v-64h-64v-64h-64zM320 64h64v64h64v64v64v64v64v64h-64v64h-64h-64h-64v-64h-64v-64v-64v-64v-64v-64h64v-64h64h64z" />
    <glyph glyph-name="P" unicode="P" 
d="M192 0h-64h-64h-64v64h64v64v64v64v64v64v64v64h-64v64h64h64h64h64h64h64v-64h64v-64v-64v-64h-64v-64h-64h-64h-64v-64v-64v-64h64v-64h-64zM256 320h64v64v64v64h-64h-64v-64v-64v-64h64z" />
    <glyph glyph-name="Q" unicode="Q" horiz-adv-x="640" 
d="M512 -64h-64v64h-64v64v64h-64v64h-64h-64v64h64h64h64v-64h64v-64h64v-64h64v64h64v-64v-64h-64v-64h-64zM256 64h64v-64h-64h-64h-64v64h-64v64h-64v64v64v64v64v64h64v64h64v64h64h64h64h64h64v-64h64v-64h64v-64v-64v-64v-64h-64h-64v64v64v64v64h-64v64h-64h-64h-64
v-64h-64v-64v-64v-64v-64v-64h64v-64h64z" />
    <glyph glyph-name="R" unicode="R" horiz-adv-x="576" 
d="M512 0h-64h-64v64h-64v64v64h-64v64h-64v-64v-64v-64h64v-64h-64h-64h-64h-64v64h64v64v64v64v64v64v64v64h-64v64h64h64h64h64h64h64v-64h64v-64v-64v-64h-64v-64v-64h64v-64h64v-64h64v-64h-64zM256 320h64v64v64v64h-64h-64v-64v-64v-64h64z" />
    <glyph glyph-name="S" unicode="S" 
d="M0 0v64v64v64h64v-64h64v-64h64h64h64v64v64h-64v64h-64h-64v64h-64v64h-64v64v64h64v64h64h64h64v-64h64v64h64v-64v-64v-64h-64v64h-64v64h-64h-64v-64v-64h64h64v-64h64h64v-64h64v-64v-64v-64h-64v-64h-64h-64h-64h-64v64h-64v-64h-64z" />
    <glyph glyph-name="T" unicode="T" horiz-adv-x="512" 
d="M448 448v64h-64h-64v-64v-64v-64v-64v-64v-64v-64h64v-64h-64h-64h-64h-64v64h64v64v64v64v64v64v64v64h-64h-64v-64h-64v64v64h64h64h64h64h64h64h64h64v-64v-64h-64z" />
    <glyph glyph-name="U" unicode="U" horiz-adv-x="576" 
d="M384 64h64v-64h-64h-64h-64h-64h-64v64h-64v64v64v64v64v64v64v64h-64v64h64h64h64h64v-64h-64v-64v-64v-64v-64v-64v-64v-64h64h64h64zM448 64v64v64v64v64v64v64v64h-64v64h64h64h64v-64h-64v-64v-64v-64v-64v-64v-64v-64h-64z" />
    <glyph glyph-name="V" unicode="V" horiz-adv-x="576" 
d="M256 0h-64v64v64h-64v64v64v64h-64v64v64h-64v64h-64v64h64h64h64h64v-64h-64v-64h64v-64v-64h64v-64v-64h64v-64v-64v-64h-64zM320 192v64v64v64h64v-64v-64v-64h-64zM384 384v64v64h-64v64h64h64h64h64v-64h-64h-64v-64v-64h-64z" />
    <glyph glyph-name="W" unicode="W" horiz-adv-x="832" 
d="M512 0v64v64h-64v64v64h-64v64h-64v-64v-64v-64h-64v-64v-64h-64v64h-64v64v64v64h-64v64v64v64h-64v64h-64v64h64h64h64h64v-64h-64v-64h64v-64v-64v-64h64v64h64v64v64v64h64v64h64v-64v-64h64v-64v-64v-64h64h64v-64v-64v-64h-64v-64h-64zM640 256v64v64v64h64v-64
v-64v-64h-64zM704 448v64h-64h-64v64h64h64h64h64v-64h-64v-64h-64z" />
    <glyph glyph-name="X" unicode="X" horiz-adv-x="576" 
d="M512 64h64v-64h-64h-64h-64h-64h-64v64h64v64v64h-64h-64v-64h-64v-64h64v-64h-64h-64h-64h-64v64h64h64v64h64v64h64v64v64v64h-64v64h-64v64h-64h-64v64h64h64h64h64h64v-64h-64v-64h64v-64h64v-64v-64h64v-64h64v-64v-64h64zM320 384v64h64v-64h-64zM384 448v64h-64
v64h64h64h64h64v-64h-64h-64v-64h-64z" />
    <glyph glyph-name="Y" unicode="Y" horiz-adv-x="512" 
d="M320 0h-64h-64h-64v64h64v64v64v64h-64v64v64h-64v64h-64v64h-64v64h64h64h64h64h64v-64h-64v-64v-64h64v-64h64v-64v-64v-64v-64h64v-64h-64zM320 320v64v64h64v-64v-64h-64zM384 448v64h-64v64h64h64h64v-64h-64v-64h-64z" />
    <glyph glyph-name="Z" unicode="Z" 
d="M0 384v64v64v64h64h64h64h64h64h64h64v-64v-64h-64v-64h-64v-64h-64v-64v-64h-64v-64h-64v-64h64h64h64v64h64v64h64v-64v-64v-64h-64h-64h-64h-64h-64h-64h-64v64v64h64v64h64v64h64v64v64h64v64h64v64h-64h-64h-64v-64h-64v-64h-64z" />
    <glyph glyph-name="bracketleft" unicode="[" horiz-adv-x="256" 
d="M192 -64h64v-64h-64h-64h-64h-64v64v64v64v64v64v64v64v64v64v64v64v64h64h64h64h64v-64h-64h-64v-64v-64v-64v-64v-64v-64v-64v-64v-64v-64h64z" />
    <glyph glyph-name="backslash" unicode="\" horiz-adv-x="384" 
d="M320 -192h-64v64v64h-64v64v64v64h-64v64v64v64h-64v64v64v64h-64v64v64h64h64v-64v-64h64v-64v-64v-64h64v-64v-64v-64h64v-64v-64v-64h64v-64v-64h-64z" />
    <glyph glyph-name="bracketright" unicode="]" horiz-adv-x="256" 
d="M192 -128h-64h-64h-64v64h64h64v64v64v64v64v64v64v64v64v64v64h-64h-64v64h64h64h64h64v-64v-64v-64v-64v-64v-64v-64v-64v-64v-64v-64v-64h-64z" />
    <glyph glyph-name="asciicircum" unicode="^" 
d="M384 320v64h-64v64h-64h-64v-64h-64v-64h-64v64v64h64v64h64v64h64h64v-64h64v-64h64v-64v-64h-64z" />
    <glyph glyph-name="underscore" unicode="_" horiz-adv-x="512" 
d="M448 -64h64v-64h-64h-64h-64h-64h-64h-64h-64h-64v64h64h64h64h64h64h64h64z" />
    <glyph glyph-name="grave" unicode="`" horiz-adv-x="256" 
d="M192 448h-64v64h-64v64h-64v64h64h64v-64h64v-64h64v-64h-64z" />
    <glyph glyph-name="a" unicode="a" 
d="M64 320v64h64v-64h-64zM384 0h-64v64h-64v64v64h-64h-64v-64v-64h64h64v-64h-64h-64h-64v64h-64v64v64h64v64h64h64h64v64v64h-64h-64v64h64h64h64v-64h64v-64v-64v-64v-64v-64h64v-64h-64z" />
    <glyph glyph-name="b" unicode="b" horiz-adv-x="512" 
d="M384 0h-64h-64v64h-64v-64h-64h-64h-64v64h64v64v64v64v64v64v64v64v64h-64v64h64h64v64h64v-64v-64v-64v-64h64h64h64h64v-64h64v-64v-64v-64v-64v-64h-64v-64h-64zM320 64h64v64v64v64v64v64h-64h-64v-64h-64v-64v-64v-64h64v-64h64z" />
    <glyph glyph-name="c" unicode="c" horiz-adv-x="512" 
d="M384 256v64h-64v64h64v64h64v-64v-64v-64h-64zM320 64h64v-64h-64h-64h-64h-64h-64v64h-64v64v64v64v64h64v64h64v64h64h64h64v-64h-64h-64v-64h-64v-64v-64v-64h64v-64h64h64zM384 64v64h64v-64h-64zM448 128v64h64v-64h-64z" />
    <glyph glyph-name="d" unicode="d" horiz-adv-x="512" 
d="M448 0h-64h-64v64h-64v64h64v64v64v64h-64v64h-64h-64v-64v-64v-64v-64v-64h64h64v-64h-64h-64h-64v64h-64v64v64v64v64v64h64v64h64h64h64h64v64v64h-64v64h64h64v64h64v-64v-64v-64v-64v-64v-64v-64v-64v-64v-64h64v-64h-64z" />
    <glyph glyph-name="e" unicode="e" 
d="M256 64h64v-64h-64h-64h-64h-64v64h-64v64v64v64v64h64v64h64v64h64h64h64v-64h-64h-64v-64h64h64v64h64v-64v-64h-64h-64h-64h-64v-64v-64v-64h64h64zM320 64v64h64v-64h-64zM384 128v64h64v-64h-64z" />
    <glyph glyph-name="f" unicode="f" 
d="M192 0h-64h-64h-64v64h64v64v64v64v64h-64v64h64v64v64v64h64v64h64h64h64h64v-64h64v-64h-64h-64v64h-64h-64v-64v-64v-64h64h64h64v-64h-64h-64h-64v-64v-64v-64v-64h64v-64h-64z" />
    <glyph glyph-name="g" unicode="g" horiz-adv-x="512" 
d="M320 -192h-64h-64h-64h-64v64h-64v64v64h64v64v64h-64v64v64v64v64h64v64h64h64h64v-64h-64h-64v-64v-64v-64v-64h64h64h64v64v64v64h-64v64h64v64h64h64h64v-64h-64v-64v-64h64v-64h-64v64h-64v-64h64v-64v-64v-64v-64v-64h-64v-64h-64zM256 -128h64v64v64v64h-64v-64
h-64h-64v-64v-64h64h64z" />
    <glyph glyph-name="h" unicode="h" horiz-adv-x="576" 
d="M512 0h-64h-64h-64v64h64v64v64v64v64v64h-64h-64v-64h-64v-64v-64v-64v-64h64v-64h-64h-64h-64h-64v64h64v64v64v64v64v64v64v64h-64v64h64h64v64h64v-64v-64v-64v-64h64v64h64h64h64v-64h64v-64v-64v-64v-64v-64h64v-64h-64z" />
    <glyph glyph-name="i" unicode="i" horiz-adv-x="256" 
d="M192 0h-64h-64h-64v64h64v64v64v64h-64v64h64v64h64h64v-64v-64v-64v-64v-64h64v-64h-64zM128 448h-64v64v64h64h64v-64v-64h-64z" />
    <glyph glyph-name="j" unicode="j" horiz-adv-x="320" 
d="M128 -192h-64h-64v64h-64v64v64v64h64v64h64v64h64v64v64h-64v64h64h64v64h64v-64v-64h64v-64h-64v64h-64v-64h64v-64v-64v-64v-64v-64v-64h-64v-64h-64zM64 -128h64v64v64v64v64h-64v-64h-64v-64v-64v-64h64zM192 512h-64v64v64h64h64v-64v-64h-64z" />
    <glyph glyph-name="k" unicode="k" horiz-adv-x="512" 
d="M448 0h-64h-64v64v64h-64v64h-64v-64v-64h64v-64h-64h-64h-64h-64v64h64v64v64v64v64v64v64v64h-64v64h64h64v64h64v-64v-64v-64v-64v-64v-64h64v64h64v-64v-64h64v-64h64v-64h64v-64h-64zM320 320v64v64h64h64v-64h-64v-64h-64z" />
    <glyph glyph-name="l" unicode="l" horiz-adv-x="256" 
d="M192 0h-64h-64v64v64v64v64v64v64v64v64h-64v64h64h64v64h64v-64v-64v-64v-64v-64v-64v-64v-64v-64h64v-64h-64z" />
    <glyph glyph-name="m" unicode="m" horiz-adv-x="768" 
d="M704 0h-64h-64v64v64v64v64v64v64h-64v-64h-64v-64v-64v-64v-64h64v-64h-64h-64h-64v64v64v64v64v64v64h-64v-64h-64v-64v-64v-64v-64h64v-64h-64h-64h-64h-64v64h64v64v64v64v64h-64v64h64v64h64h64v-64h64v64h64h64v-64h64v64h64h64h64v-64h64v-64v-64v-64v-64v-64h64
v-64h-64z" />
    <glyph glyph-name="n" unicode="n" horiz-adv-x="512" 
d="M448 0h-64h-64v64v64v64v64v64v64h-64v-64h-64v-64v-64v-64v-64h64v-64h-64h-64h-64h-64v64h64v64v64v64v64h-64v64h64v64h64h64v-64h64v64h64h64v-64h64v-64v-64v-64v-64v-64h64v-64h-64z" />
    <glyph glyph-name="o" unicode="o" 
d="M256 0h-64h-64v64h-64v64h-64v64v64v64h64v64h64v64h64h64h64v-64h64v-64h64v-64v-64v-64h-64v-64h-64v-64h-64zM256 64v64h64v64v64v64h-64v64h-64v-64h-64v-64v-64v-64h64v-64h64z" />
    <glyph glyph-name="p" unicode="p" horiz-adv-x="576" 
d="M192 -192h-64h-64h-64v64h64v64v64v64v64v64v64v64h-64v64h64v64h64h64v-64h64v64h64h64h64v-64h64v-64v-64h64v-64h-64v-64v-64h-64v-64h-64h-64h-64h-64v-64v-64h64v-64h-64zM320 64h64v64v64v64v64v64h-64h-64v-64h-64v-64v-64v-64v-64h64h64z" />
    <glyph glyph-name="q" unicode="q" horiz-adv-x="512" 
d="M384 -192h-64v64v64v64v64h-64v-64h-64h-64h-64v64h-64v64v64v64v64v64h64v64h64h64h64v-64h-64h-64v-64v-64v-64v-64v-64h64h64v64h64v64v64v64h-64v64h64v64h64h64h64v-64h-64v-64v-64v-64v-64v-64v-64v-64h64v-64h-64v-64h-64z" />
    <glyph glyph-name="r" unicode="r" 
d="M192 0h-64h-64h-64v64h64v64v64v64v64h-64v64h64v64h64h64v-64h64v-64h-64v-64v-64v-64v-64h64v-64h-64zM384 256h-64v64v64h-64v64h64h64v-64h64v-64v-64h-64z" />
    <glyph glyph-name="s" unicode="s" 
d="M256 0h-64h-64h-64v64h64h64h64v64v64h-64h-64h-64v64h-64v64v64h64v64h64h64h64h64v-64h64v-64h-64h-64v64h-64h-64v-64v-64h64h64h64v-64h64v-64v-64h-64v-64h-64zM64 64h-64v64h64v-64zM384 384v64h64v-64h-64z" />
    <glyph glyph-name="t" unicode="t" horiz-adv-x="320" 
d="M192 0h-64v64h-64v64v64v64v64h-64v64h64v64h64v64h64v-64v-64h64h64v-64h-64h-64v-64v-64v-64v-64h64v-64h-64zM256 64v64h64v-64h-64z" />
    <glyph glyph-name="u" unicode="u" horiz-adv-x="576" 
d="M512 0h-64v64h-64h-64v-64h-64h-64h-64v64h-64v64v64v64v64h-64v64h64v64h64h64v-64v-64v-64v-64v-64v-64h64h64v64h64v64v64v64v64h-64v64h64h64h64v-64v-64v-64v-64v-64v-64h64v-64h-64z" />
    <glyph glyph-name="v" unicode="v" 
d="M-64 256v64h64v-64h-64zM192 0h-64v64v64h-64v64v64v64h-64v64h64v64h64v-64v-64v-64h64v-64h64v-64v-64v-64h-64zM256 192v64v64h64v-64v-64h-64zM320 320v64h-64v64h64h64h64v-64h-64v-64h-64z" />
    <glyph glyph-name="w" unicode="w" horiz-adv-x="832" 
d="M576 0h-64v64h-64v64v64v64h-64v-64v-64v-64h-64v-64h-64h-64v64h-64v64v64v64h-64v64h-64v64h64v64h64h64h64v-64h-64v-64v-64h64v-64v-64v-64h64v64v64v64h64v64v64h-64v64h64h64h64h64v-64h-64v-64v-64h64v-64v-64v-64h64v-64h-64zM640 64v64v64v64h64v-64v-64v-64
h-64zM704 256v64v64h-64v64h64h64h64v-64h-64v-64v-64h-64z" />
    <glyph glyph-name="x" unicode="x" horiz-adv-x="512" 
d="M448 0h-64h-64h-64v64h64v64h-64v64h-64v-64h-64v-64h64v-64h-64h-64h-64v64h64v64h64v64h64v64h-64v64h-64v64h-64v64h64h64v-64h64v-64h64v-64h64v-64h64v-64h64v-64h64v-64h-64zM256 320v64v64h64h64h64v-64h-64h-64v-64h-64z" />
    <glyph glyph-name="y" unicode="y" horiz-adv-x="576" 
d="M128 -192h-64h-64v64v64h64h64v-64h64v-64h-64zM192 -128v64v64h64v-64v-64h-64zM256 0v64h-64v64v64h-64v64v64h-64v64h-64v64h64h64h64h64v-64h-64v-64h64v-64v-64h64v64h64v-64v-64h-64v-64v-64h-64zM384 256v64v64h-64v64h64h64h64h64v-64h-64v-64h-64v-64h-64z" />
    <glyph glyph-name="z" unicode="z" 
d="M0 320v64v64h64h64h64h64h64h64h64v-64h-64v-64h-64v-64h-64v-64h-64v-64h-64v-64h64h64h64h64v64h64v-64v-64h-64h-64h-64h-64h-64h-64h-64v64v64h64v64h64v64h64v64h64v64h-64h-64h-64v-64h-64z" />
    <glyph glyph-name="braceleft" unicode="{" horiz-adv-x="320" 
d="M256 -128h-64v64h-64v64v64v64v64h64v-64h64v-64v-64v-64h64v-64h-64zM128 192h-64v64h-64v64h64h64v-64v-64zM128 320v64v64v64v64h64v64h64h64v-64h-64v-64v-64v-64h-64v-64h-64z" />
    <glyph glyph-name="bar" unicode="|" horiz-adv-x="192" 
d="M128 -192h-64v64v64v64v64v64v64v64v64v64v64v64v64v64h64h64v-64v-64v-64v-64v-64v-64v-64v-64v-64v-64v-64v-64v-64h-64z" />
    <glyph glyph-name="braceright" unicode="}" horiz-adv-x="320" 
d="M64 -128h-64v64h64v64v64v64h64v64h64v-64v-64v-64v-64h-64v-64h-64zM192 192v64v64h64h64v-64h-64v-64h-64zM192 320h-64v64h-64v64v64v64h-64v64h64h64v-64h64v-64v-64v-64v-64z" />
    <glyph glyph-name="asciitilde" unicode="~" 
d="M0 192v64h64v-64h-64zM320 256h64v-64h-64h-64h-64v64h-64h-64v64h64h64h64v-64h64zM384 256v64h64v-64h-64z" />
    <glyph glyph-name="uni00A0" unicode="&#xa0;" horiz-adv-x="320" 
 />
    <glyph glyph-name="exclamdown" unicode="&#xa1;" horiz-adv-x="192" 
d="M128 0h-64v64v64v64v64h64v64v64v64h64v-64v-64v-64v-64v-64v-64v-64h-64zM128 512h-64v64v64h64h64v-64v-64h-64z" />
    <glyph glyph-name="cent" unicode="&#xa2;" horiz-adv-x="384" 
d="M192 -128v64v64h-64v64h-64v64h-64v64v64v64h64v64h64v64h64v64v64h64v-64v-64h64v-64h-64v-64h64v64h64v-64v-64h-64h-64v-64v-64v-64h64v-64h-64v-64v-64h-64zM320 64v64h64v-64h-64zM192 64v64v64v64v64v64h-64v-64v-64v-64v-64v-64h64z" />
    <glyph glyph-name="sterling" unicode="&#xa3;" 
d="M384 64h64v-64h-64h-64h-64h-64h-64h-64h-64v64h64v64v64v64h-64v64h64v64v64v64h64v64h64v-64v-64v-64v-64h64h64h64v-64h-64h-64h-64v-64v-64h-64v-64h64h64h64h64zM384 448h-64v64v64h-64h-64v64h64h64h64v-64h64v-64v-64h-64z" />
    <glyph glyph-name="currency" unicode="&#xa4;" 
d="M320 64v64h64v-64h-64zM64 128v64h64v-64h-64zM320 128h-64h-64v64h64h64v-64zM320 192v64v64h64v-64v-64h-64zM192 192h-64v64v64h64v-64v-64zM384 320v64h64v-64h-64zM320 320h-64h-64v64h64h64v-64zM192 384h-64v64h64v-64z" />
    <glyph glyph-name="brokenbar" unicode="&#xa6;" horiz-adv-x="192" 
d="M128 -192h-64v64v64v64v64v64v64h64h64v-64v-64v-64v-64v-64v-64h-64zM128 256h-64v64v64v64v64v64v64h64h64v-64v-64v-64v-64v-64v-64h-64z" />
    <glyph glyph-name="section" unicode="&#xa7;" horiz-adv-x="320" 
d="M192 -64h64v-64h-64h-64h-64h-64v64v64h64h64v-64h64zM256 -64v64h-64v64h-64h-64v64h-64v64v64v64h64v64h-64v64v64h64v-64h64v-64h64h64v-64h64v-64v-64v-64h-64v-64h64v-64v-64h-64zM192 128v64h64v64h-64v64h-64v-64h-64v-64h64v-64h64zM256 448h-64v64h-64h-64v64
h64h64h64h64v-64v-64h-64z" />
    <glyph glyph-name="dieresis" unicode="&#xa8;" horiz-adv-x="320" 
d="M256 512h-64v64v64h64h64v-64v-64h-64zM64 512h-64v64v64h64h64v-64v-64h-64z" />
    <glyph glyph-name="copyright" unicode="&#xa9;" horiz-adv-x="768" 
d="M448 -64h64v-64h-64h-64h-64h-64v64h64h64h64zM512 -64v64h64v64h64v64v64v64v64v64v64h-64v64h-64v64h64h64v-64h64v-64v-64h64v-64v-64v-64v-64h-64v-64v-64h-64v-64h-64h-64zM256 -64h-64h-64v64h-64v64v64h-64v64v64v64v64h64v64v64h64v64h64h64v-64h-64v-64h-64v-64
v-64v-64v-64v-64v-64h64v-64h64v-64zM384 128h64v-64h-64h-64h-64v64h64h64zM448 128v64h64v-64h-64zM256 128h-64v64v64v64v64h64v-64v-64v-64v-64zM448 320h-64v64h64v64h64v-64v-64h-64zM384 384h-64h-64v64h64h64v-64zM512 576h-64h-64h-64h-64v64h64h64h64h64v-64z" />
    <glyph glyph-name="guillemotleft" unicode="&#xab;" 
d="M384 64h-64v64h-64v64h-64v-64h64v-64h-64h-64v64h-64v64h-64v64h64v64h64v64h64h64v-64h-64v-64h-64v-64h64v64h64v64h64v64h64h64v-64h-64v-64h-64v-64h64v-64h64v-64h-64z" />
    <glyph glyph-name="registered" unicode="&#xae;" horiz-adv-x="768" 
d="M448 -64h64v-64h-64h-64h-64h-64v64h64h64h64zM512 -64v64h64v64h64v64v64v64v64v64v64h-64v64h-64v64h64h64v-64h64v-64v-64h64v-64v-64v-64v-64h-64v-64v-64h-64v-64h-64h-64zM256 -64h-64h-64v64h-64v64v64h-64v64v64v64v64h64v64v64h64v64h64h64v-64h-64v-64h64h64
h64h64v-64h64v-64v-64h-64v64v64h-64h-64v-64v-64h64h64v-64h64v-64h64v-64h-64h-64v64v64h-64h-64v-64h64v-64h-64h-64h-64v64h64v64v64v64v64h-64v64h-64v-64v-64v-64v-64v-64v-64h64v-64h64v-64zM512 576h-64h-64h-64h-64v64h64h64h64h64v-64z" />
    <glyph glyph-name="macron" unicode="&#xaf;" horiz-adv-x="320" 
d="M256 576h64v-64h-64h-64h-64h-64h-64v64h64h64h64h64z" />
    <glyph glyph-name="degree" unicode="&#xb0;" horiz-adv-x="256" 
d="M128 320h-64v64h-64v64v64v64h64v64h64h64v-64h64v-64v-64v-64h-64v64v64v64h-64v-64v-64v-64h64v-64h-64z" />
    <glyph glyph-name="acute" unicode="&#xb4;" horiz-adv-x="256" 
d="M64 448v64h64v-64h-64zM128 512v64v64h64h64v-64v-64h-64h-64z" />
    <glyph glyph-name="paragraph" unicode="&#xb6;" 
d="M320 -128v64v64v64v64v64v64v64v64v64v64h-64v-64v-64v-64v-64v-64v-64v-64v-64v-64v-64h-64v64v64v64v64v64v64h-64v64h-64v64h-64v64v64h64v64h64h64h64h64h64h64v-64h-64v-64v-64v-64v-64v-64v-64v-64v-64v-64v-64h-64z" />
    <glyph glyph-name="periodcentered" unicode="&#xb7;" horiz-adv-x="128" 
d="M64 192h-64v64v64h64h64v-64v-64h-64z" />
    <glyph glyph-name="guillemotright" unicode="&#xbb;" 
d="M256 64h-64v64h-64v-64h-64h-64v64h64v64h64v64h-64v64h-64v64h64h64v-64h64v64h64h64v-64h64v-64h64v-64h-64v-64h-64v-64h-64zM256 128v64h-64v-64h64zM320 192v64h-64v64h-64v-64h64v-64h64z" />
    <glyph glyph-name="bullet" unicode="&#x2022;" horiz-adv-x="256" 
d="M128 128h-64v64h-64v64v64h64v64h64h64v-64h64v-64v-64h-64v-64h-64z" />
    <glyph glyph-name="Euro" unicode="&#x20ac;" horiz-adv-x="512" 
d="M448 384v64h-64v64v64h64v64h64v-64v-64v-64v-64h-64zM384 0h-64h-64h-64h-64v64h-64v64h-64v64h-64v64h64v64h-64v64h64v64h64v64h64v64h64v-64v-64h-64v-64h64h64h64v-64h-64h-64h-64v-64h64h64v-64h-64h-64v-64h64v-64h64h64h64v64h64v64h64v-64v-64h-64v-64h-64z
M384 576h-64h-64h-64v64h64h64h64v-64z" />
    <glyph glyph-name="uni3000" unicode="&#x3000;" horiz-adv-x="1024" 
 />
  </font>
</defs>
</svg>
